<?xml version="1.0" encoding="UTF-8" ?>
<svg version="1.1" width="20" height="20" xmlns="http://www.w3.org/2000/svg" shape-rendering="crispEdges">
<rect x="7" y="2" width="1" height="1" fill="#201E1F" />
<rect x="8" y="2" width="1" height="1" fill="#211F20" />
<rect x="9" y="2" width="1" height="1" fill="#211F20" />
<rect x="10" y="2" width="1" height="1" fill="#211F20" />
<rect x="11" y="2" width="1" height="1" fill="#211F20" />
<rect x="12" y="2" width="1" height="1" fill="#211F20" />
<rect x="13" y="2" width="1" height="1" fill="#211F20" />
<rect x="3" y="3" width="1" height="1" fill="#231F20" />
<rect x="4" y="3" width="1" height="1" fill="#231F20" />
<rect x="5" y="3" width="1" height="1" fill="#231F20" />
<rect x="6" y="3" width="1" height="1" fill="#231F20" />
<rect x="7" y="3" width="1" height="1" fill="#FAB333" />
<rect x="8" y="3" width="1" height="1" fill="#F8ED31" />
<rect x="9" y="3" width="1" height="1" fill="#FDEC2D" />
<rect x="10" y="3" width="1" height="1" fill="#FDEC2D" />
<rect x="11" y="3" width="1" height="1" fill="#FDEC2D" />
<rect x="12" y="3" width="1" height="1" fill="#FDEC2D" />
<rect x="13" y="3" width="1" height="1" fill="#FDEB2F" />
<rect x="14" y="3" width="1" height="1" fill="#231F20" />
<rect x="15" y="3" width="1" height="1" fill="#231F20" />
<rect x="16" y="3" width="1" height="1" fill="#231F20" />
<rect x="17" y="3" width="1" height="1" fill="#231F20" />
<rect x="3" y="4" width="1" height="1" fill="#231F20" />
<rect x="7" y="4" width="1" height="1" fill="#F8B33A" />
<rect x="8" y="4" width="1" height="1" fill="#F8ED31" />
<rect x="9" y="4" width="1" height="1" fill="#F8ED31" />
<rect x="10" y="4" width="1" height="1" fill="#F8ED31" />
<rect x="11" y="4" width="1" height="1" fill="#F8ED31" />
<rect x="12" y="4" width="1" height="1" fill="#FFFFFF" />
<rect x="13" y="4" width="1" height="1" fill="#F8EE2D" />
<rect x="17" y="4" width="1" height="1" fill="#231F20" />
<rect x="3" y="5" width="1" height="1" fill="#231F20" />
<rect x="7" y="5" width="1" height="1" fill="#F8B33A" />
<rect x="8" y="5" width="1" height="1" fill="#F8ED31" />
<rect x="9" y="5" width="1" height="1" fill="#F8ED31" />
<rect x="10" y="5" width="1" height="1" fill="#F8ED31" />
<rect x="11" y="5" width="1" height="1" fill="#F8ED31" />
<rect x="12" y="5" width="1" height="1" fill="#FFFFFF" />
<rect x="13" y="5" width="1" height="1" fill="#F8EE2D" />
<rect x="17" y="5" width="1" height="1" fill="#231F20" />
<rect x="3" y="6" width="1" height="1" fill="#231F20" />
<rect x="7" y="6" width="1" height="1" fill="#F8B33A" />
<rect x="8" y="6" width="1" height="1" fill="#F8ED31" />
<rect x="9" y="6" width="1" height="1" fill="#F8ED31" />
<rect x="10" y="6" width="1" height="1" fill="#F8ED31" />
<rect x="11" y="6" width="1" height="1" fill="#F8ED31" />
<rect x="12" y="6" width="1" height="1" fill="#FFFFFF" />
<rect x="13" y="6" width="1" height="1" fill="#F8EE2D" />
<rect x="17" y="6" width="1" height="1" fill="#231F20" />
<rect x="3" y="7" width="1" height="1" fill="#211F20" />
<rect x="7" y="7" width="1" height="1" fill="#F8B33A" />
<rect x="8" y="7" width="1" height="1" fill="#F8ED31" />
<rect x="9" y="7" width="1" height="1" fill="#F8ED31" />
<rect x="10" y="7" width="1" height="1" fill="#F8ED31" />
<rect x="11" y="7" width="1" height="1" fill="#F8ED31" />
<rect x="12" y="7" width="1" height="1" fill="#FFFFFF" />
<rect x="13" y="7" width="1" height="1" fill="#F8EE2D" />
<rect x="17" y="7" width="1" height="1" fill="#211F20" />
<rect x="4" y="8" width="1" height="1" fill="#231F20" />
<rect x="7" y="8" width="1" height="1" fill="#F8B33A" />
<rect x="8" y="8" width="1" height="1" fill="#F8ED31" />
<rect x="9" y="8" width="1" height="1" fill="#F8ED31" />
<rect x="10" y="8" width="1" height="1" fill="#F8ED31" />
<rect x="11" y="8" width="1" height="1" fill="#F8ED31" />
<rect x="12" y="8" width="1" height="1" fill="#F8ED31" />
<rect x="13" y="8" width="1" height="1" fill="#F8EE2D" />
<rect x="15" y="8" width="1" height="1" fill="#231F20" />
<rect x="16" y="8" width="1" height="1" fill="#231F20" />
<rect x="5" y="9" width="1" height="1" fill="#221E1F" />
<rect x="6" y="9" width="1" height="1" fill="#221E1F" />
<rect x="7" y="9" width="1" height="1" fill="#FFAD45" />
<rect x="8" y="9" width="1" height="1" fill="#FCB040" />
<rect x="9" y="9" width="1" height="1" fill="#F8ED31" />
<rect x="10" y="9" width="1" height="1" fill="#F8ED31" />
<rect x="11" y="9" width="1" height="1" fill="#F8ED31" />
<rect x="12" y="9" width="1" height="1" fill="#F8EC36" />
<rect x="13" y="9" width="1" height="1" fill="#FAEC33" />
<rect x="14" y="9" width="1" height="1" fill="#221E1F" />
<rect x="8" y="10" width="1" height="1" fill="#3C280F" />
<rect x="9" y="10" width="1" height="1" fill="#FCB750" />
<rect x="10" y="10" width="1" height="1" fill="#E1B23C" />
<rect x="11" y="10" width="1" height="1" fill="#E1B23C" />
<rect x="12" y="10" width="1" height="1" fill="#302800" />
<rect x="9" y="11" width="1" height="1" fill="#1D2225" />
<rect x="10" y="11" width="1" height="1" fill="#1C2125" />
<rect x="11" y="11" width="1" height="1" fill="#1C2125" />
<rect x="9" y="12" width="1" height="1" fill="#242021" />
<rect x="10" y="12" width="1" height="1" fill="#231F20" />
<rect x="11" y="12" width="1" height="1" fill="#231F20" />
<rect x="9" y="13" width="1" height="1" fill="#242021" />
<rect x="10" y="13" width="1" height="1" fill="#231F20" />
<rect x="11" y="13" width="1" height="1" fill="#231F20" />
<rect x="9" y="14" width="1" height="1" fill="#22211D" />
<rect x="10" y="14" width="1" height="1" fill="#261D20" />
<rect x="11" y="14" width="1" height="1" fill="#261D20" />
<rect x="9" y="15" width="1" height="1" fill="#22211D" />
<rect x="10" y="15" width="1" height="1" fill="#261D20" />
<rect x="11" y="15" width="1" height="1" fill="#261D20" />
<rect x="8" y="16" width="1" height="1" fill="#1C2125" />
<rect x="9" y="16" width="1" height="1" fill="#FCB040" />
<rect x="10" y="16" width="1" height="1" fill="#F8ED31" />
<rect x="11" y="16" width="1" height="1" fill="#F8ED31" />
<rect x="12" y="16" width="1" height="1" fill="#241F19" />
<rect x="7" y="17" width="1" height="1" fill="#221E1F" />
<rect x="8" y="17" width="1" height="1" fill="#FCB13C" />
<rect x="9" y="17" width="1" height="1" fill="#FCB13C" />
<rect x="10" y="17" width="1" height="1" fill="#FDED28" />
<rect x="11" y="17" width="1" height="1" fill="#FDED28" />
<rect x="12" y="17" width="1" height="1" fill="#FDED28" />
<rect x="13" y="17" width="1" height="1" fill="#231F20" />
<rect x="7" y="18" width="1" height="1" fill="#141213" />
<rect x="8" y="18" width="1" height="1" fill="#141213" />
<rect x="9" y="18" width="1" height="1" fill="#141213" />
<rect x="10" y="18" width="1" height="1" fill="#141213" />
<rect x="11" y="18" width="1" height="1" fill="#141213" />
<rect x="12" y="18" width="1" height="1" fill="#141213" />
<rect x="13" y="18" width="1" height="1" fill="#141213" />
</svg>