<?xml version="1.0" encoding="UTF-8" ?>
<svg version="1.1" width="10" height="40" xmlns="http://www.w3.org/2000/svg" shape-rendering="crispEdges">
<rect x="4" y="3" width="1" height="1" fill="#453E3E" />
<rect x="5" y="3" width="1" height="1" fill="#453E3E" />
<rect x="4" y="4" width="1" height="1" fill="#453E3E" />
<rect x="5" y="4" width="1" height="1" fill="#453E3E" />
<rect x="4" y="5" width="1" height="1" fill="#453E3E" />
<rect x="5" y="5" width="1" height="1" fill="#453E3E" />
<rect x="3" y="6" width="1" height="1" fill="#2E2929" />
<rect x="4" y="6" width="1" height="1" fill="#453E3E" />
<rect x="5" y="6" width="1" height="1" fill="#453E3E" />
<rect x="6" y="6" width="1" height="1" fill="#453E3E" />
<rect x="3" y="7" width="1" height="1" fill="#2E2929" />
<rect x="4" y="7" width="1" height="1" fill="#524A4A" />
<rect x="5" y="7" width="1" height="1" fill="#524A4A" />
<rect x="6" y="7" width="1" height="1" fill="#453E3E" />
<rect x="3" y="8" width="1" height="1" fill="#2E2929" />
<rect x="4" y="8" width="1" height="1" fill="#524A4A" />
<rect x="5" y="8" width="1" height="1" fill="#524A4A" />
<rect x="6" y="8" width="1" height="1" fill="#453E3E" />
<rect x="3" y="9" width="1" height="1" fill="#2E2929" />
<rect x="4" y="9" width="1" height="1" fill="#524A4A" />
<rect x="5" y="9" width="1" height="1" fill="#524A4A" />
<rect x="6" y="9" width="1" height="1" fill="#453E3E" />
<rect x="3" y="10" width="1" height="1" fill="#2E2929" />
<rect x="4" y="10" width="1" height="1" fill="#524A4A" />
<rect x="5" y="10" width="1" height="1" fill="#524A4A" />
<rect x="6" y="10" width="1" height="1" fill="#453E3E" />
<rect x="3" y="11" width="1" height="1" fill="#2E2929" />
<rect x="4" y="11" width="1" height="1" fill="#524A4A" />
<rect x="5" y="11" width="1" height="1" fill="#524A4A" />
<rect x="6" y="11" width="1" height="1" fill="#453E3E" />
<rect x="3" y="12" width="1" height="1" fill="#2E2929" />
<rect x="4" y="12" width="1" height="1" fill="#524A4A" />
<rect x="5" y="12" width="1" height="1" fill="#524A4A" />
<rect x="6" y="12" width="1" height="1" fill="#453E3E" />
<rect x="3" y="13" width="1" height="1" fill="#2E2929" />
<rect x="4" y="13" width="1" height="1" fill="#524A4A" />
<rect x="5" y="13" width="1" height="1" fill="#524A4A" />
<rect x="6" y="13" width="1" height="1" fill="#453E3E" />
<rect x="3" y="14" width="1" height="1" fill="#2E2929" />
<rect x="4" y="14" width="1" height="1" fill="#524A4A" />
<rect x="5" y="14" width="1" height="1" fill="#524A4A" />
<rect x="6" y="14" width="1" height="1" fill="#453E3E" />
<rect x="2" y="15" width="1" height="1" fill="#2E2929" />
<rect x="3" y="15" width="1" height="1" fill="#2E2929" />
<rect x="4" y="15" width="1" height="1" fill="#524A4A" />
<rect x="5" y="15" width="1" height="1" fill="#524A4A" />
<rect x="6" y="15" width="1" height="1" fill="#453E3E" />
<rect x="7" y="15" width="1" height="1" fill="#453E3E" />
<rect x="2" y="16" width="1" height="1" fill="#2E2929" />
<rect x="3" y="16" width="1" height="1" fill="#2E2929" />
<rect x="4" y="16" width="1" height="1" fill="#524A4A" />
<rect x="5" y="16" width="1" height="1" fill="#524A4A" />
<rect x="6" y="16" width="1" height="1" fill="#453E3E" />
<rect x="7" y="16" width="1" height="1" fill="#453E3E" />
<rect x="2" y="17" width="1" height="1" fill="#2E2929" />
<rect x="3" y="17" width="1" height="1" fill="#2E2929" />
<rect x="4" y="17" width="1" height="1" fill="#524A4A" />
<rect x="5" y="17" width="1" height="1" fill="#524A4A" />
<rect x="6" y="17" width="1" height="1" fill="#453E3E" />
<rect x="7" y="17" width="1" height="1" fill="#453E3E" />
<rect x="2" y="18" width="1" height="1" fill="#2E2929" />
<rect x="3" y="18" width="1" height="1" fill="#2E2929" />
<rect x="4" y="18" width="1" height="1" fill="#524A4A" />
<rect x="5" y="18" width="1" height="1" fill="#524A4A" />
<rect x="6" y="18" width="1" height="1" fill="#453E3E" />
<rect x="7" y="18" width="1" height="1" fill="#453E3E" />
<rect x="2" y="19" width="1" height="1" fill="#2E2929" />
<rect x="3" y="19" width="1" height="1" fill="#2E2929" />
<rect x="4" y="19" width="1" height="1" fill="#524A4A" />
<rect x="5" y="19" width="1" height="1" fill="#524A4A" />
<rect x="6" y="19" width="1" height="1" fill="#453E3E" />
<rect x="7" y="19" width="1" height="1" fill="#453E3E" />
<rect x="2" y="20" width="1" height="1" fill="#2E2929" />
<rect x="3" y="20" width="1" height="1" fill="#2E2929" />
<rect x="4" y="20" width="1" height="1" fill="#524A4A" />
<rect x="5" y="20" width="1" height="1" fill="#524A4A" />
<rect x="6" y="20" width="1" height="1" fill="#453E3E" />
<rect x="7" y="20" width="1" height="1" fill="#453E3E" />
<rect x="2" y="21" width="1" height="1" fill="#2E2929" />
<rect x="3" y="21" width="1" height="1" fill="#2E2929" />
<rect x="4" y="21" width="1" height="1" fill="#524A4A" />
<rect x="5" y="21" width="1" height="1" fill="#524A4A" />
<rect x="6" y="21" width="1" height="1" fill="#453E3E" />
<rect x="7" y="21" width="1" height="1" fill="#453E3E" />
<rect x="2" y="22" width="1" height="1" fill="#2E2929" />
<rect x="3" y="22" width="1" height="1" fill="#2E2929" />
<rect x="4" y="22" width="1" height="1" fill="#524A4A" />
<rect x="5" y="22" width="1" height="1" fill="#524A4A" />
<rect x="6" y="22" width="1" height="1" fill="#453E3E" />
<rect x="7" y="22" width="1" height="1" fill="#453E3E" />
<rect x="2" y="23" width="1" height="1" fill="#2E2929" />
<rect x="3" y="23" width="1" height="1" fill="#2E2929" />
<rect x="4" y="23" width="1" height="1" fill="#524A4A" />
<rect x="5" y="23" width="1" height="1" fill="#524A4A" />
<rect x="6" y="23" width="1" height="1" fill="#453E3E" />
<rect x="7" y="23" width="1" height="1" fill="#453E3E" />
<rect x="2" y="24" width="1" height="1" fill="#2E2929" />
<rect x="3" y="24" width="1" height="1" fill="#2E2929" />
<rect x="4" y="24" width="1" height="1" fill="#524A4A" />
<rect x="5" y="24" width="1" height="1" fill="#524A4A" />
<rect x="6" y="24" width="1" height="1" fill="#453E3E" />
<rect x="7" y="24" width="1" height="1" fill="#453E3E" />
<rect x="2" y="25" width="1" height="1" fill="#2E2929" />
<rect x="3" y="25" width="1" height="1" fill="#2E2929" />
<rect x="4" y="25" width="1" height="1" fill="#524A4A" />
<rect x="5" y="25" width="1" height="1" fill="#524A4A" />
<rect x="6" y="25" width="1" height="1" fill="#453E3E" />
<rect x="7" y="25" width="1" height="1" fill="#453E3E" />
<rect x="2" y="26" width="1" height="1" fill="#2E2929" />
<rect x="3" y="26" width="1" height="1" fill="#2E2929" />
<rect x="4" y="26" width="1" height="1" fill="#524A4A" />
<rect x="5" y="26" width="1" height="1" fill="#524A4A" />
<rect x="6" y="26" width="1" height="1" fill="#453E3E" />
<rect x="7" y="26" width="1" height="1" fill="#453E3E" />
<rect x="2" y="27" width="1" height="1" fill="#2E2929" />
<rect x="3" y="27" width="1" height="1" fill="#2E2929" />
<rect x="4" y="27" width="1" height="1" fill="#524A4A" />
<rect x="5" y="27" width="1" height="1" fill="#524A4A" />
<rect x="6" y="27" width="1" height="1" fill="#453E3E" />
<rect x="7" y="27" width="1" height="1" fill="#453E3E" />
<rect x="2" y="28" width="1" height="1" fill="#2E2929" />
<rect x="3" y="28" width="1" height="1" fill="#2E2929" />
<rect x="4" y="28" width="1" height="1" fill="#524A4A" />
<rect x="5" y="28" width="1" height="1" fill="#524A4A" />
<rect x="6" y="28" width="1" height="1" fill="#453E3E" />
<rect x="7" y="28" width="1" height="1" fill="#453E3E" />
<rect x="2" y="29" width="1" height="1" fill="#2E2929" />
<rect x="3" y="29" width="1" height="1" fill="#2E2929" />
<rect x="4" y="29" width="1" height="1" fill="#524A4A" />
<rect x="5" y="29" width="1" height="1" fill="#524A4A" />
<rect x="6" y="29" width="1" height="1" fill="#453E3E" />
<rect x="7" y="29" width="1" height="1" fill="#453E3E" />
<rect x="2" y="30" width="1" height="1" fill="#2E2929" />
<rect x="3" y="30" width="1" height="1" fill="#2E2929" />
<rect x="4" y="30" width="1" height="1" fill="#524A4A" />
<rect x="5" y="30" width="1" height="1" fill="#524A4A" />
<rect x="6" y="30" width="1" height="1" fill="#453E3E" />
<rect x="7" y="30" width="1" height="1" fill="#453E3E" />
<rect x="2" y="31" width="1" height="1" fill="#2E2929" />
<rect x="3" y="31" width="1" height="1" fill="#2E2929" />
<rect x="4" y="31" width="1" height="1" fill="#524A4A" />
<rect x="5" y="31" width="1" height="1" fill="#524A4A" />
<rect x="6" y="31" width="1" height="1" fill="#453E3E" />
<rect x="7" y="31" width="1" height="1" fill="#453E3E" />
<rect x="2" y="32" width="1" height="1" fill="#2E2929" />
<rect x="3" y="32" width="1" height="1" fill="#2E2929" />
<rect x="4" y="32" width="1" height="1" fill="#524A4A" />
<rect x="5" y="32" width="1" height="1" fill="#524A4A" />
<rect x="6" y="32" width="1" height="1" fill="#453E3E" />
<rect x="7" y="32" width="1" height="1" fill="#453E3E" />
<rect x="2" y="33" width="1" height="1" fill="#2E2929" />
<rect x="3" y="33" width="1" height="1" fill="#2E2929" />
<rect x="4" y="33" width="1" height="1" fill="#524A4A" />
<rect x="5" y="33" width="1" height="1" fill="#524A4A" />
<rect x="6" y="33" width="1" height="1" fill="#453E3E" />
<rect x="7" y="33" width="1" height="1" fill="#453E3E" />
<rect x="2" y="34" width="1" height="1" fill="#2E2929" />
<rect x="3" y="34" width="1" height="1" fill="#2E2929" />
<rect x="4" y="34" width="1" height="1" fill="#524A4A" />
<rect x="5" y="34" width="1" height="1" fill="#524A4A" />
<rect x="6" y="34" width="1" height="1" fill="#453E3E" />
<rect x="7" y="34" width="1" height="1" fill="#453E3E" />
<rect x="2" y="35" width="1" height="1" fill="#2E2929" />
<rect x="3" y="35" width="1" height="1" fill="#2E2929" />
<rect x="4" y="35" width="1" height="1" fill="#524A4A" />
<rect x="5" y="35" width="1" height="1" fill="#524A4A" />
<rect x="6" y="35" width="1" height="1" fill="#453E3E" />
<rect x="7" y="35" width="1" height="1" fill="#453E3E" />
<rect x="3" y="36" width="1" height="1" fill="#2E2929" />
<rect x="4" y="36" width="1" height="1" fill="#2E2929" />
<rect x="5" y="36" width="1" height="1" fill="#453E3E" />
<rect x="6" y="36" width="1" height="1" fill="#453E3E" />
<rect x="4" y="37" width="1" height="1" fill="#2E2929" />
<rect x="5" y="37" width="1" height="1" fill="#453E3E" />
</svg>